# xmcd
#
# Track frame offsets:
#	150
#	11470
#	19370
#	32060
#	47925
#	60900
#	73735
#	87645
#	101185
#	115905
#	128225
#	138435
#	153025
#	165405
#	177725
#	191010
#	201845
#	216055
#	229855
#	243500
#	261090
#	273065
#	288355
#	301025
#
# Disc length: 4184 seconds
#
# Revision: 0
# Processed by: cddbd v1.5.1PL0 Copyright (c) Steve Scherf et al.
# Submitted via: audiograbber 1.83.01
#
DISCID=57105618
DTITLE=Dolly Parton - Just The Way I Am
DYEAR=1900
DGENRE=Country
TTITLE0=Just The Way I Am
TTITLE1=Little Bird
TTITLE2=Mama Say A Prayer
TTITLE3=My Blue Ridge Mountain Boy
TTITLE4=In The Good Old Days
TTITLE5=In The Ghetto
TTITLE6=Daddy Come And Get Me
TTITLE7=The Carroll County Accident
TTITLE8=Gypsy Joe And Me
TTITLE9=Jolene
TTITLE10=Traveling Man
TTITLE11=Lonely Comim' Down
TTITLE12=The Bargain Store
TTITLE13=Touch Your Woman
TTITLE14=I Will Always Love You
TTITLE15=Love Is Like A Butterfly
TTITLE16=Coat Of Many Colors
TTITLE17=My Tennessee Mountain Home
TTITLE18=When I Sing For Him
TTITLE19=Yellow Roses
TTITLE20=To Daddy
TTITLE21=Rockin' Years
TTITLE22=Apple Jack
TTITLE23=Smoky Mountain Memories
EXTD=
EXTT0=
EXTT1=
EXTT2=
EXTT3=
EXTT4=
EXTT5=
EXTT6=
EXTT7=
EXTT8=
EXTT9=
EXTT10=
EXTT11=
EXTT12=
EXTT13=
EXTT14=
EXTT15=
EXTT16=
EXTT17=
EXTT18=
EXTT19=
EXTT20=
EXTT21=
EXTT22=
EXTT23=
PLAYORDER=
